<?xml version="1.0" encoding="utf-8"?>
<!-- Generator: Adobe Illustrator 28.4.1, SVG Export Plug-In . SVG Version: 6.00 Build 0)  -->
<svg version="1.1"
	 id="svg13826" xmlns:inkscape="http://www.inkscape.org/namespaces/inkscape" xmlns:rdf="http://www.w3.org/1999/02/22-rdf-syntax-ns#" xmlns:cc="http://creativecommons.org/ns#" xmlns:dc="http://purl.org/dc/elements/1.1/" xmlns:svg="http://www.w3.org/2000/svg" xmlns:sodipodi="http://sodipodi.sourceforge.net/DTD/sodipodi-0.dtd" inkscape:version="0.92.1 r15371"
	 xmlns="http://www.w3.org/2000/svg" xmlns:xlink="http://www.w3.org/1999/xlink" x="0px" y="0px" viewBox="0 0 10.6 10.6"
	 style="enable-background:new 0 0 10.6 10.6;" xml:space="preserve">
<style type="text/css">
	.st0{fill:#2B4B9B;stroke:#000000;stroke-width:0.1;stroke-miterlimit:10;}
</style>
<sodipodi:namedview  bordercolor="#666666" borderopacity="1.0" gridtolerance="10" guidetolerance="2" id="base" inkscape:current-layer="layer1" inkscape:cx="6.7191129" inkscape:cy="6.238671" inkscape:document-units="mm" inkscape:guide-bbox="true" inkscape:pageopacity="0.0" inkscape:pageshadow="2" inkscape:window-height="712" inkscape:window-maximized="0" inkscape:window-width="691" inkscape:window-x="674" inkscape:window-y="27" inkscape:zoom="28.687777" pagecolor="#ffffff" showgrid="false" showguides="true">
	<inkscape:grid  id="grid13828" type="xygrid"></inkscape:grid>
	<sodipodi:guide  id="guide20533" inkscape:locked="false" orientation="1,0" position="0.13043093,3.8477124"></sodipodi:guide>
	<sodipodi:guide  id="guide20535" inkscape:locked="false" orientation="0,1" position="1.9173346,3.6129367"></sodipodi:guide>
</sodipodi:namedview>
<path id="path10617" inkscape:connector-curvature="0" class="st0" d="M9.3,7.6C7.4,7.6,5.5,7.3,3.9,6c0,0,0,0,0,0
	c0,0,0-0.1,0.1-0.1l1.5,0c0.1,0,0.1-0.1,0.1-0.1c0-0.1,0-0.1-0.1-0.1L4.2,5c0,0,0,0,0-0.1c0,0,0,0,0-0.1c0,0,1.7-1.5,5.2-1.4
	L9.3,7.6z M6.2,5.3c0.2,0,0.3-0.1,0.3-0.3c0-0.2-0.1-0.3-0.3-0.3C6,4.6,5.8,4.8,5.8,4.9C5.8,5.1,6,5.3,6.2,5.3"/>
<path id="path10619" inkscape:connector-curvature="0" class="st0" d="M3.3,3.9c0-0.2-0.2-0.4-0.4-0.4c-0.2,0-0.4,0.2-0.4,0.4
	c0,0.2,0.1,0.3,0.3,0.4c0,0.1,0,2.1,0,2.1c0,0.1-0.1,0.2-0.1,0.3C2.4,6.8,2.3,6.8,2.2,6.8C2.1,6.8,2,6.8,1.9,6.7
	C1.8,6.6,1.7,6.5,1.7,6.3c0,0,0-0.1,0-0.1c0.1,0.1,0.3,0.2,0.3,0.2L1.9,5.1L1.5,6C1.4,6.2,1.4,6.3,1.4,6.3c0,0.4,0.3,0.8,0.8,0.8
	C2.6,7.2,3,6.8,3,6.4v0c0,0,0-2,0-2.1C3.2,4.2,3.3,4.1,3.3,3.9"/>
</svg>
