<?xml version="1.0" encoding="UTF-8"?>
<svg id="Calque_1" data-name="Calque 1" xmlns="http://www.w3.org/2000/svg" viewBox="0 0 201.51 201.34">
  <defs>
    <style>
      .cls-1 {
        fill: #312783;
      }

      .cls-1, .cls-2 {
        stroke-width: 0px;
      }

      .cls-2 {
        fill: #fff;
      }
    </style>
  </defs>
  <path class="cls-1" d="M100.71,201.32C45.21,202.11-.11,155.46,0,100.58.11,45.52,45.69-.15,101.06,0c54.92.15,100.42,45.55,100.45,100.69.03,55.44-45.78,101.5-100.8,100.64ZM89.5,118.51c12.04,0,23.39.8,34.59-.16,25.7-2.21,41.2-24.59,35.66-49.66-4.18-18.88-20.42-31.54-42.52-32.52-16.79-.74-33.64-.09-50.46-.24-3.5-.03-4.64,1.17-4.63,4.6.08,39.81.08,79.62,0,119.43,0,3.57,1.46,4.62,4.8,4.51,5.66-.17,11.34-.29,16.98.03,4.28.25,5.8-.95,5.69-5.52-.32-12.95-.11-25.92-.11-40.49Z"/>
  <path class="cls-2" d="M89.5,118.51c0,14.57-.21,27.53.11,40.49.11,4.56-1.42,5.76-5.69,5.52-5.64-.32-11.33-.21-16.98-.03-3.34.1-4.81-.94-4.8-4.51.08-39.81.08-79.62,0-119.43,0-3.44,1.13-4.64,4.63-4.6,16.82.15,33.67-.5,50.46.24,22.1.98,38.34,13.64,42.52,32.52,5.55,25.07-9.96,47.45-35.66,49.66-11.2.96-22.55.16-34.59.16ZM89.77,58.57v38c.72.18,1.18.4,1.65.4,7.98.03,15.97.14,23.95.02,9.91-.16,16.99-6.15,17.68-14.71,1.05-13.15-4.5-22.49-15.23-23.52-9.18-.88-18.52-.18-28.05-.18Z"/>
  <path class="cls-1" d="M89.77,58.57c9.53,0,18.86-.7,28.05.18,10.73,1.03,16.28,10.37,15.23,23.52-.68,8.56-7.76,14.56-17.68,14.71-7.98.13-15.97.01-23.95-.02-.46,0-.93-.22-1.65-.4v-38Z"/>
</svg>